<svg fill="#999999" xmlns="http://www.w3.org/2000/svg" xmlns:xlink="http://www.w3.org/1999/xlink" version="1.1" preserveAspectRatio="none" x="0px" y="0px" viewBox="0 0 100 100">
  <path d=" M 94.4 89.4 Q 94.3947265625 87.3341796875 92.9 85.85 L 67.6 60.55 Q 67.4197265625 60.3681640625 67.2 60.2 71.373046875 54.684765625 72.8 48 L 72.8 47.95 Q 73.5943359375 44.42421875 73.6 40.6 73.6015625 26.9052734375 63.9 17.2 54.2970703125 7.60078125 40.6 7.6 26.90625 7.6025390625 17.2 17.2 7.6025390625 26.90625 7.6 40.6 7.60078125 54.2970703125 17.2 63.9 26.9052734375 73.6015625 40.6 73.6 51.74140625 73.602734375 60.2 67.2 60.3673828125 67.4189453125 60.55 67.6 L 85.85 92.9 Q 87.3341796875 94.3947265625 89.4 94.4 91.4658203125 94.3947265625 92.9 92.9 94.3947265625 91.4658203125 94.4 89.4 M 59.65 21.45 Q 67.5982421875 29.39453125 67.6 40.6 67.6056640625 43.77578125 66.95 46.7 65.3291015625 54.068359375 59.65 59.65 51.8021484375 67.5966796875 40.6 67.6 29.39453125 67.5982421875 21.45 59.65 13.59921875 51.8029296875 13.6 40.6 13.5974609375 29.39375 21.45 21.45 29.39375 13.5974609375 40.6 13.6 51.8029296875 13.59921875 59.65 21.45 Z">
  </path>
</svg>
